<svg xmlns="http://www.w3.org/2000/svg" viewBox="486 1394.8 198 96.0" width="198" height="96.0">
<defs><style>
      .st0, .st1 {
        fill: #c1c1c1;
        font-family: PFStardustBold, 'PF Stardust Bold';
        font-size: 46px;
      }

      .st2 {
        fill: #d60100;
      }

      .st3 {
        fill: #49baba;
      }

      .st4 {
        fill: #c0ff88;
      }

      .st5 {
        fill: #d8d8d8;
      }

      .st6 {
        fill: #b4e2af;
      }

      .st7 {
        fill: #fbf1d8;
      }

      .st8 {
        fill: #fff;
        stroke: #fff;
      }

      .st8, .st9 {
        stroke-miterlimit: 10;
      }

      .st9 {
        stroke: #000;
      }

      .st1 {
        letter-spacing: 0em;
      }
    </style></defs>
<g>
    <polygon class="st6" points="492 1406.8 492 1478.8 498 1478.8 498 1484.8 672 1484.8 672 1478.8 678 1478.8 678 1406.8 672 1406.8 672 1400.8 498 1400.8 498 1406.8 492 1406.8" />
    <g>
      <rect x="498" y="1394.8" width="6" height="6" />
      <rect x="492" y="1400.8" width="6" height="6" />
      <rect x="504" y="1394.8" width="6" height="6" />
      <rect x="510" y="1394.8" width="6" height="6" />
      <rect x="516" y="1394.8" width="6" height="6" />
      <rect x="522" y="1394.8" width="6" height="6" />
      <rect x="528" y="1394.8" width="6" height="6" />
      <rect x="534" y="1394.8" width="6" height="6" />
      <rect x="540" y="1394.8" width="6" height="6" />
      <rect x="546" y="1394.8" width="6" height="6" />
      <rect x="552" y="1394.8" width="6" height="6" />
      <rect x="558" y="1394.8" width="6" height="6" />
      <rect x="564" y="1394.8" width="6" height="6" />
      <rect x="570" y="1394.8" width="6" height="6" />
      <rect x="576" y="1394.8" width="6" height="6" />
      <rect x="582" y="1394.8" width="6" height="6" />
      <rect x="588" y="1394.8" width="6" height="6" />
      <rect x="594" y="1394.8" width="6" height="6" />
      <rect x="600" y="1394.8" width="6" height="6" />
      <rect x="606" y="1394.8" width="6" height="6" />
      <rect x="612" y="1394.8" width="6" height="6" />
      <rect x="618" y="1394.8" width="6" height="6" />
      <rect x="624" y="1394.8" width="6" height="6" />
      <rect x="630" y="1394.8" width="6" height="6" />
      <rect x="636" y="1394.8" width="6" height="6" />
      <rect x="642" y="1394.8" width="6" height="6" />
      <rect x="648" y="1394.8" width="6" height="6" />
      <rect x="654" y="1394.8" width="6" height="6" />
      <rect x="660" y="1394.8" width="6" height="6" />
      <rect x="666" y="1394.8" width="6" height="6" />
      <rect x="498" y="1484.8" width="6" height="6" />
      <rect x="492" y="1478.8" width="6" height="6" />
      <rect x="504" y="1484.8" width="6" height="6" />
      <rect x="510" y="1484.8" width="6" height="6" />
      <rect x="516" y="1484.8" width="6" height="6" />
      <rect x="522" y="1484.8" width="6" height="6" />
      <rect x="528" y="1484.8" width="6" height="6" />
      <rect x="534" y="1484.8" width="6" height="6" />
      <rect x="540" y="1484.8" width="6" height="6" />
      <rect x="546" y="1484.8" width="6" height="6" />
      <rect x="552" y="1484.8" width="6" height="6" />
      <rect x="558" y="1484.8" width="6" height="6" />
      <rect x="564" y="1484.8" width="6" height="6" />
      <rect x="570" y="1484.8" width="6" height="6" />
      <rect x="576" y="1484.8" width="6" height="6" />
      <rect x="582" y="1484.8" width="6" height="6" />
      <rect x="588" y="1484.8" width="6" height="6" />
      <rect x="594" y="1484.8" width="6" height="6" />
      <rect x="600" y="1484.8" width="6" height="6" />
      <rect x="606" y="1484.8" width="6" height="6" />
      <rect x="612" y="1484.8" width="6" height="6" />
      <rect x="618" y="1484.8" width="6" height="6" />
      <rect x="624" y="1484.8" width="6" height="6" />
      <rect x="630" y="1484.8" width="6" height="6" />
      <rect x="636" y="1484.8" width="6" height="6" />
      <rect x="642" y="1484.8" width="6" height="6" />
      <rect x="648" y="1484.8" width="6" height="6" />
      <rect x="654" y="1484.8" width="6" height="6" />
      <rect x="660" y="1484.8" width="6" height="6" />
      <rect x="666" y="1484.8" width="6" height="6" />
      <rect x="672" y="1400.8" width="6" height="6" />
      <rect x="678" y="1406.8" width="6" height="6" />
      <rect x="678" y="1412.8" width="6" height="6" />
      <rect x="678" y="1418.8" width="6" height="6" />
      <rect x="678" y="1424.8" width="6" height="6" />
      <rect x="678" y="1430.8" width="6" height="6" />
      <rect x="678" y="1436.8" width="6" height="6" />
      <rect x="678" y="1442.8" width="6" height="6" />
      <rect x="678" y="1448.8" width="6" height="6" />
      <rect x="678" y="1454.8" width="6" height="6" />
      <rect x="678" y="1460.8" width="6" height="6" />
      <rect x="678" y="1466.8" width="6" height="6" />
      <rect x="678" y="1472.8" width="6" height="6" />
      <rect x="486" y="1406.8" width="6" height="6" />
      <rect x="486" y="1412.8" width="6" height="6" />
      <rect x="486" y="1418.8" width="6" height="6" />
      <rect x="486" y="1424.8" width="6" height="6" />
      <rect x="486" y="1430.8" width="6" height="6" />
      <rect x="486" y="1436.8" width="6" height="6" />
      <rect x="486" y="1442.8" width="6" height="6" />
      <rect x="486" y="1448.8" width="6" height="6" />
      <rect x="486" y="1454.8" width="6" height="6" />
      <rect x="486" y="1460.8" width="6" height="6" />
      <rect x="486" y="1466.8" width="6" height="6" />
      <rect x="486" y="1472.8" width="6" height="6" />
      <rect x="672" y="1478.8" width="6" height="6" />
    </g>
  </g>
  
<g>
    <path class="st9" d="M544.1,1449.6v-3.4h37.5v3.4h-37.5ZM554.3,1439.4v-13.6h17v3.4h-13.6v6.8h13.6v3.4h-17ZM561.1,1466.6v-6.8h6.8v6.8h-6.8Z" />
    <path class="st9" d="M588.4,1449.6v-3.4h17v-3.4h-6.8v-10.2h13.6v-3.4h-13.6v-3.4h17v10.2h-13.6v3.4h13.6v3.4h-6.8v3.4h17v3.4h-37.5ZM615.7,1466.6v-10.2h-17v-3.4h20.5v13.6h-3.4Z" />
  </g>
  
</svg>
