<svg xmlns="http://www.w3.org/2000/svg" viewBox="324 942.8 522 120.0" width="522" height="120.0">
<defs><style>
      .st0, .st1 {
        fill: #c1c1c1;
        font-family: PFStardustBold, 'PF Stardust Bold';
        font-size: 46px;
      }

      .st2 {
        fill: #d60100;
      }

      .st3 {
        fill: #49baba;
      }

      .st4 {
        fill: #c0ff88;
      }

      .st5 {
        fill: #d8d8d8;
      }

      .st6 {
        fill: #b4e2af;
      }

      .st7 {
        fill: #fbf1d8;
      }

      .st8 {
        fill: #fff;
        stroke: #fff;
      }

      .st8, .st9 {
        stroke-miterlimit: 10;
      }

      .st9 {
        stroke: #000;
      }

      .st1 {
        letter-spacing: 0em;
      }
    </style></defs>
<polygon class="st7" points="330 954.8 330 1050.8 336 1050.8 336 1056.8 834 1056.8 834 1050.8 840 1050.8 840 954.8 834 954.8 834 948.8 336 948.8 336 954.8 330 954.8" />
  
<g>
    <rect x="336" y="942.8" width="6" height="6" />
    <rect x="330" y="948.8" width="6" height="6" />
    <rect x="342" y="942.8" width="6" height="6" />
    <rect x="348" y="942.8" width="6" height="6" />
    <rect x="354" y="942.8" width="6" height="6" />
    <rect x="360" y="942.8" width="6" height="6" />
    <rect x="366" y="942.8" width="6" height="6" />
    <rect x="372" y="942.8" width="6" height="6" />
    <rect x="378" y="942.8" width="6" height="6" />
    <rect x="384" y="942.8" width="6" height="6" />
    <rect x="390" y="942.8" width="6" height="6" />
    <rect x="396" y="942.8" width="6" height="6" />
    <rect x="402" y="942.8" width="6" height="6" />
    <rect x="408" y="942.8" width="6" height="6" />
    <rect x="414" y="942.8" width="6" height="6" />
    <rect x="420" y="942.8" width="6" height="6" />
    <rect x="426" y="942.8" width="6" height="6" />
    <rect x="432" y="942.8" width="6" height="6" />
    <rect x="438" y="942.8" width="6" height="6" />
    <rect x="444" y="942.8" width="6" height="6" />
    <rect x="450" y="942.8" width="6" height="6" />
    <rect x="456" y="942.8" width="6" height="6" />
    <rect x="462" y="942.8" width="6" height="6" />
    <rect x="468" y="942.8" width="6" height="6" />
    <rect x="474" y="942.8" width="6" height="6" />
    <rect x="480" y="942.8" width="6" height="6" />
    <rect x="486" y="942.8" width="6" height="6" />
    <rect x="492" y="942.8" width="6" height="6" />
    <rect x="498" y="942.8" width="6" height="6" />
    <rect x="504" y="942.8" width="6" height="6" />
    <rect x="510" y="942.8" width="6" height="6" />
    <rect x="516" y="942.8" width="6" height="6" />
    <rect x="522" y="942.8" width="6" height="6" />
    <rect x="528" y="942.8" width="6" height="6" />
    <rect x="534" y="942.8" width="6" height="6" />
    <rect x="540" y="942.8" width="6" height="6" />
    <rect x="546" y="942.8" width="6" height="6" />
    <rect x="552" y="942.8" width="6" height="6" />
    <rect x="558" y="942.8" width="6" height="6" />
    <rect x="564" y="942.8" width="6" height="6" />
    <rect x="570" y="942.8" width="6" height="6" />
    <rect x="576" y="942.8" width="6" height="6" />
    <rect x="582" y="942.8" width="6" height="6" />
    <rect x="588" y="942.8" width="6" height="6" />
    <rect x="594" y="942.8" width="6" height="6" />
    <rect x="600" y="942.8" width="6" height="6" />
    <rect x="606" y="942.8" width="6" height="6" />
    <rect x="612" y="942.8" width="6" height="6" />
    <rect x="618" y="942.8" width="6" height="6" />
    <rect x="624" y="942.8" width="6" height="6" />
    <rect x="630" y="942.8" width="6" height="6" />
    <rect x="636" y="942.8" width="6" height="6" />
    <rect x="642" y="942.8" width="6" height="6" />
    <rect x="648" y="942.8" width="6" height="6" />
    <rect x="654" y="942.8" width="6" height="6" />
    <rect x="660" y="942.8" width="6" height="6" />
    <rect x="666" y="942.8" width="6" height="6" />
    <rect x="672" y="942.8" width="6" height="6" />
    <rect x="678" y="942.8" width="6" height="6" />
    <rect x="684" y="942.8" width="6" height="6" />
    <rect x="690" y="942.8" width="6" height="6" />
    <rect x="696" y="942.8" width="6" height="6" />
    <rect x="702" y="942.8" width="6" height="6" />
    <rect x="708" y="942.8" width="6" height="6" />
    <rect x="714" y="942.8" width="6" height="6" />
    <rect x="720" y="942.8" width="6" height="6" />
    <rect x="726" y="942.8" width="6" height="6" />
    <rect x="732" y="942.8" width="6" height="6" />
    <rect x="738" y="942.8" width="6" height="6" />
    <rect x="744" y="942.8" width="6" height="6" />
    <rect x="750" y="942.8" width="6" height="6" />
    <rect x="756" y="942.8" width="6" height="6" />
    <rect x="762" y="942.8" width="6" height="6" />
    <rect x="768" y="942.8" width="6" height="6" />
    <rect x="774" y="942.8" width="6" height="6" />
    <rect x="780" y="942.8" width="6" height="6" />
    <rect x="786" y="942.8" width="6" height="6" />
    <rect x="792" y="942.8" width="6" height="6" />
    <rect x="798" y="942.8" width="6" height="6" />
    <rect x="804" y="942.8" width="6" height="6" />
    <rect x="810" y="942.8" width="6" height="6" />
    <rect x="816" y="942.8" width="6" height="6" />
    <rect x="822" y="942.8" width="6" height="6" />
    <polygon points="336 1056.8 336 1057.3 336 1062.8 342 1062.8 342 1056.8 336 1056.8" />
    <polygon points="336 1050.8 330 1050.8 330 1056.8 336 1056.8 336 1056.2 336 1050.8" />
    <rect x="342" y="1056.8" width="6" height="6" />
    <rect x="348" y="1056.8" width="6" height="6" />
    <rect x="354" y="1056.8" width="6" height="6" />
    <rect x="360" y="1056.8" width="6" height="6" />
    <rect x="366" y="1056.8" width="6" height="6" />
    <rect x="372" y="1056.8" width="6" height="6" />
    <rect x="378" y="1056.8" width="6" height="6" />
    <rect x="384" y="1056.8" width="6" height="6" />
    <rect x="390" y="1056.8" width="6" height="6" />
    <rect x="396" y="1056.8" width="6" height="6" />
    <rect x="402" y="1056.8" width="6" height="6" />
    <rect x="408" y="1056.8" width="6" height="6" />
    <rect x="414" y="1056.8" width="6" height="6" />
    <rect x="420" y="1056.8" width="6" height="6" />
    <rect x="426" y="1056.8" width="6" height="6" />
    <rect x="432" y="1056.8" width="6" height="6" />
    <rect x="438" y="1056.8" width="6" height="6" />
    <rect x="444" y="1056.8" width="6" height="6" />
    <rect x="450" y="1056.8" width="6" height="6" />
    <rect x="456" y="1056.8" width="6" height="6" />
    <rect x="462" y="1056.8" width="6" height="6" />
    <rect x="468" y="1056.8" width="6" height="6" />
    <rect x="474" y="1056.8" width="6" height="6" />
    <rect x="480" y="1056.8" width="6" height="6" />
    <rect x="486" y="1056.8" width="6" height="6" />
    <rect x="492" y="1056.8" width="6" height="6" />
    <rect x="498" y="1056.8" width="6" height="6" />
    <rect x="504" y="1056.8" width="6" height="6" />
    <rect x="510" y="1056.8" width="6" height="6" />
    <rect x="516" y="1056.8" width="6" height="6" />
    <rect x="522" y="1056.8" width="6" height="6" />
    <rect x="528" y="1056.8" width="6" height="6" />
    <rect x="534" y="1056.8" width="6" height="6" />
    <rect x="540" y="1056.8" width="6" height="6" />
    <rect x="546" y="1056.8" width="6" height="6" />
    <rect x="552" y="1056.8" width="6" height="6" />
    <rect x="558" y="1056.8" width="6" height="6" />
    <rect x="564" y="1056.8" width="6" height="6" />
    <rect x="570" y="1056.8" width="6" height="6" />
    <rect x="576" y="1056.8" width="6" height="6" />
    <rect x="582" y="1056.8" width="6" height="6" />
    <rect x="588" y="1056.8" width="6" height="6" />
    <rect x="594" y="1056.8" width="6" height="6" />
    <rect x="600" y="1056.8" width="6" height="6" />
    <rect x="606" y="1056.8" width="6" height="6" />
    <rect x="612" y="1056.8" width="6" height="6" />
    <rect x="618" y="1056.8" width="6" height="6" />
    <rect x="624" y="1056.8" width="6" height="6" />
    <rect x="630" y="1056.8" width="6" height="6" />
    <rect x="636" y="1056.8" width="6" height="6" />
    <rect x="642" y="1056.8" width="6" height="6" />
    <rect x="648" y="1056.8" width="6" height="6" />
    <rect x="654" y="1056.8" width="6" height="6" />
    <rect x="660" y="1056.8" width="6" height="6" />
    <rect x="666" y="1056.8" width="6" height="6" />
    <rect x="672" y="1056.8" width="6" height="6" />
    <rect x="678" y="1056.8" width="6" height="6" />
    <rect x="684" y="1056.8" width="6" height="6" />
    <rect x="690" y="1056.8" width="6" height="6" />
    <rect x="696" y="1056.8" width="6" height="6" />
    <rect x="702" y="1056.8" width="6" height="6" />
    <rect x="708" y="1056.8" width="6" height="6" />
    <rect x="714" y="1056.8" width="6" height="6" />
    <rect x="720" y="1056.8" width="6" height="6" />
    <rect x="726" y="1056.8" width="6" height="6" />
    <rect x="732" y="1056.8" width="6" height="6" />
    <rect x="738" y="1056.8" width="6" height="6" />
    <rect x="744" y="1056.8" width="6" height="6" />
    <rect x="750" y="1056.8" width="6" height="6" />
    <rect x="756" y="1056.8" width="6" height="6" />
    <rect x="762" y="1056.8" width="6" height="6" />
    <rect x="768" y="1056.8" width="6" height="6" />
    <rect x="774" y="1056.8" width="6" height="6" />
    <rect x="780" y="1056.8" width="6" height="6" />
    <rect x="786" y="1056.8" width="6" height="6" />
    <rect x="792" y="1056.8" width="6" height="6" />
    <rect x="798" y="1056.8" width="6" height="6" />
    <rect x="804" y="1056.8" width="6" height="6" />
    <rect x="810" y="1056.8" width="6" height="6" />
    <rect x="816" y="1056.8" width="6" height="6" />
    <rect x="822" y="1056.8" width="6" height="6" />
    <rect x="828" y="942.8" width="6" height="6" />
    <rect x="834" y="948.8" width="6" height="6" />
    <rect x="840" y="954.8" width="6" height="6" />
    <rect x="840" y="960.8" width="6" height="6" />
    <rect x="840" y="966.8" width="6" height="6" />
    <rect x="840" y="972.8" width="6" height="6" />
    <rect x="840" y="978.8" width="6" height="6" />
    <rect x="840" y="984.8" width="6" height="6" />
    <rect x="840" y="990.8" width="6" height="6" />
    <rect x="840" y="996.8" width="6" height="6" />
    <rect x="840" y="1002.8" width="6" height="6" />
    <rect x="840" y="1008.8" width="6" height="6" />
    <rect x="840" y="1014.8" width="6" height="6" />
    <rect x="840" y="1020.8" width="6" height="6" />
    <rect x="840" y="1026.8" width="6" height="6" />
    <rect x="840" y="1032.8" width="6" height="6" />
    <rect x="840" y="1038.8" width="6" height="6" />
    <rect x="840" y="1044.8" width="6" height="6" />
    <rect x="324" y="954.8" width="6" height="6" />
    <rect x="324" y="960.8" width="6" height="6" />
    <rect x="324" y="966.8" width="6" height="6" />
    <rect x="324" y="972.8" width="6" height="6" />
    <rect x="324" y="978.8" width="6" height="6" />
    <rect x="324" y="984.8" width="6" height="6" />
    <rect x="324" y="990.8" width="6" height="6" />
    <rect x="324" y="996.8" width="6" height="6" />
    <rect x="324" y="1002.8" width="6" height="6" />
    <rect x="324" y="1008.8" width="6" height="6" />
    <rect x="324" y="1014.8" width="6" height="6" />
    <rect x="324" y="1020.8" width="6" height="6" />
    <rect x="324" y="1026.8" width="6" height="6" />
    <rect x="324" y="1032.8" width="6" height="6" />
    <rect x="324" y="1038.8" width="6" height="6" />
    <rect x="324" y="1044.8" width="6" height="6" />
    <rect x="834" y="1050.8" width="6" height="6" />
    <rect x="828" y="1056.8" width="6" height="6" />
  </g>
  
</svg>
