<svg xmlns="http://www.w3.org/2000/svg" viewBox="448.7 892.6 272.6 27.3" width="272.6" height="27.3">
<defs><style>
      .st0, .st1 {
        fill: #c1c1c1;
        font-family: PFStardustBold, 'PF Stardust Bold';
        font-size: 46px;
      }

      .st2 {
        fill: #d60100;
      }

      .st3 {
        fill: #49baba;
      }

      .st4 {
        fill: #c0ff88;
      }

      .st5 {
        fill: #d8d8d8;
      }

      .st6 {
        fill: #b4e2af;
      }

      .st7 {
        fill: #fbf1d8;
      }

      .st8 {
        fill: #fff;
        stroke: #fff;
      }

      .st8, .st9 {
        stroke-miterlimit: 10;
      }

      .st9 {
        stroke: #000;
      }

      .st1 {
        letter-spacing: 0em;
      }
    </style></defs>
<g>
    <path d="M448.7,906.3v-4.5h4.5v4.5h-4.5ZM464.6,913.1v-18.2h2.3v18.2h-2.3Z" />
    <path d="M473.7,908.5v-2.3h25v2.3h-25ZM480.5,904v-6.8h9.1v-2.3h-9.1v-2.3h11.4v6.8h-9.1v2.3h9.1v2.3h-11.4ZM482.8,919.9v-6.8h6.8v6.8h-6.8ZM485,917.6h2.3v-2.3h-2.3v2.3Z" />
    <path d="M503.2,904v-2.3h25v2.3h-25ZM510,919.9v-6.8h9.1v-2.3h-9.1v-2.3h11.4v6.8h-9.1v2.3h9.1v2.3h-11.4ZM512.3,897.2v-4.5h4.5v4.5h-4.5Z" />
    <path d="M541.8,901.7v-4.5h4.5v4.5h-4.5ZM548.6,919.9v-9.1h2.3v2.3h6.8v-2.3h2.3v9.1h-11.4ZM550.9,917.6h6.8v-2.3h-6.8v2.3ZM557.7,906.3v-13.6h2.3v13.6h-2.3Z" />
    <path d="M566.8,908.5v-9.1h6.8v-2.3h-6.8v-2.3h9.1v6.8h-6.8v4.5h6.8v2.3h-9.1ZM587.3,919.9v-6.8h-11.4v-2.3h13.6v9.1h-2.3ZM587.3,908.5v-4.5h-9.1v-2.3h9.1v-2.3h-9.1v-2.3h9.1v-4.5h2.3v15.9h-2.3Z" />
    <path d="M596.4,901.7v-2.3h4.5v-4.5h2.3v4.5h4.5v2.3h-11.4ZM598.6,908.5v-4.5h4.5v4.5h-4.5ZM612.3,913.1v-18.2h2.3v6.8h4.5v-6.8h2.3v18.2h-2.3v-9.1h-4.5v9.1h-2.3Z" />
    <path d="M637.3,906.3h25v2.3h-11.4v6.8h-2.3v-6.8h-11.4v-2.3ZM648.6,899.5v-2.3h-6.8v-2.3h11.4v2.3h-2.3v2.3h-2.3ZM644.1,904v-2.3h2.3v2.3h-2.3ZM646.3,901.7v-2.3h2.3v2.3h-2.3ZM653.2,901.7h-2.3v-2.3h2.3v2.3ZM655.4,904h-2.3v-2.3h2.3v2.3Z" />
    <path d="M666.8,910.8v-4.5h2.3v4.5h-2.3ZM671.3,904h2.3v2.3h-4.5v-4.5h2.3v2.3ZM673.6,897.2v4.5h-2.3v-4.5h2.3ZM673.6,908.5v-2.3h4.5v2.3h-4.5ZM682.7,901.7v-6.8h2.3v18.2h-2.3v-9.1h-6.8v-2.3h6.8ZM687.2,894.9h2.3v18.2h-2.3v-18.2Z" />
    <path d="M696.3,913.1v-2.3h6.8v-6.8h2.3v6.8h4.5v-6.8h2.3v6.8h9.1v2.3h-25ZM705.4,899.5v-4.5h4.5v4.5h-4.5Z" />
  </g>
  
</svg>
