<svg xmlns="http://www.w3.org/2000/svg" viewBox="218 712 734 776" width="734" height="776">
<defs><style>
      .st0 {
        fill: #49baba;
      }

      .st1 {
        stroke: #000;
        stroke-miterlimit: 10;
        stroke-width: .5px;
      }

      .st2 {
        fill: #fff;
      }
    </style></defs>
<g>
    <rect x="744.7" y="891.9" width="5.4" height="5.4" />
    <rect x="739.3" y="891.9" width="5.4" height="5.4" />
    <rect x="734" y="886.6" width="5.4" height="5.4" />
    <rect x="728.6" y="881.2" width="5.4" height="5.4" />
    <rect x="728.6" y="875.9" width="5.4" height="5.4" />
    <rect x="734" y="870.5" width="5.4" height="5.4" />
    <rect x="739.3" y="865.2" width="5.4" height="5.4" />
    <rect x="744.7" y="865.2" width="5.4" height="5.4" />
    <rect x="750" y="865.2" width="5.4" height="5.4" />
    <rect x="755.4" y="870.5" width="5.4" height="5.4" />
    <rect x="750" y="891.9" width="5.4" height="5.4" />
    <rect x="760.7" y="881.2" width="5.4" height="5.4" />
    <rect x="760.7" y="875.9" width="5.4" height="5.4" />
    <rect x="755.4" y="886.6" width="5.4" height="5.4" />
    <polygon class="st2" points="734 875.9 734 886.6 739.3 886.6 739.3 891.9 755.4 891.9 755.4 886.6 760.7 886.6 760.7 875.9 755.4 875.9 755.4 870.5 739.3 870.5 739.3 875.9 734 875.9" />
  </g>

</svg>
